<svg width="18" height="18" viewBox="0 0 18 18" fill="none" xmlns="http://www.w3.org/2000/svg">
<path d="M16.425 14.065L16.255 13.915C15.7727 13.4853 15.3506 12.9925 15 12.45C14.6171 11.7013 14.3876 10.8836 14.325 10.045V7.575C14.3283 6.2578 13.8505 4.98473 12.9814 3.99498C12.1123 3.00523 10.9116 2.36693 9.60502 2.2C9.18926 2.1261 8.54179 2.17587 8.27002 2.21C6.97515 2.38896 5.78901 3.03112 4.93129 4.01755C4.07357 5.00397 3.60239 6.26782 3.60502 7.575V10.045C3.5424 10.8836 3.31291 11.7013 2.93002 12.45C2.58547 12.9912 2.17012 13.4839 1.69502 13.915L1.52502 14.065V15.475H16.425V14.065Z" fill="#767676"/>
<path d="M7.66003 16C7.70388 16.3169 7.86093 16.6073 8.10218 16.8175C8.34343 17.0276 8.65258 17.1434 8.97253 17.1434C9.29249 17.1434 9.60164 17.0276 9.84289 16.8175C10.0841 16.6073 10.2412 16.3169 10.285 16H7.66003Z" fill="#767676"/>
</svg>
